<?xml version="1.0" encoding="UTF-8" standalone="no"?>
<!-- Created with Inkscape (http://www.inkscape.org/) -->

<svg
   xmlns:dc="http://purl.org/dc/elements/1.1/"
   xmlns:cc="http://creativecommons.org/ns#"
   xmlns:rdf="http://www.w3.org/1999/02/22-rdf-syntax-ns#"
   xmlns:svg="http://www.w3.org/2000/svg"
   xmlns="http://www.w3.org/2000/svg"
   xmlns:sodipodi="http://sodipodi.sourceforge.net/DTD/sodipodi-0.dtd"
   xmlns:inkscape="http://www.inkscape.org/namespaces/inkscape"
   width="210mm"
   height="297mm"
   viewBox="0 0 744.09448819 1052.3622047"
   id="svg2"
   version="1.1"
   inkscape:version="0.91 r13725"
   inkscape:export-filename="D:\Ole\New folder (3)\ExoDao\images\search_on_Node.png"
   inkscape:export-xdpi="499.961"
   inkscape:export-ydpi="499.961"
   sodipodi:docname="search.svg">
  <defs
     id="defs4">
    <pattern
       y="0"
       x="0"
       height="6"
       width="6"
       patternUnits="userSpaceOnUse"
       id="EMFhbasepattern" />
  </defs>
  <sodipodi:namedview
     id="base"
     pagecolor="#ffffff"
     bordercolor="#666666"
     borderopacity="1.0"
     inkscape:pageopacity="0.0"
     inkscape:pageshadow="2"
     inkscape:zoom="0.98994949"
     inkscape:cx="216.43718"
     inkscape:cy="532.96753"
     inkscape:document-units="px"
     inkscape:current-layer="layer1"
     showgrid="false"
     inkscape:window-width="1920"
     inkscape:window-height="1017"
     inkscape:window-x="1432"
     inkscape:window-y="-8"
     inkscape:window-maximized="1" />
  <metadata
     id="metadata7">
    <rdf:RDF>
      <cc:Work
         rdf:about="">
        <dc:format>image/svg+xml</dc:format>
        <dc:type
           rdf:resource="http://purl.org/dc/dcmitype/StillImage" />
        <dc:title></dc:title>
      </cc:Work>
    </rdf:RDF>
  </metadata>
  <g
     inkscape:label="Layer 1"
     inkscape:groupmode="layer"
     id="layer1">
    <rect
       style="fill:#000000;fill-opacity:1;stroke:#ffffff;stroke-width:1.71983802;stroke-linecap:butt;stroke-linejoin:miter;stroke-miterlimit:4;stroke-dasharray:none;stroke-opacity:1"
       id="rect4200"
       width="823.75061"
       height="1122.7557"
       x="-17.915827"
       y="-14.091963" />
    <g
       id="g4192"
       transform="translate(149.47285,113.79594)">
      <path
         style="fill:#d1a06e"
         d="m 207.6653,277.99086 c -6.31853,-0.14203 -9.49352,-0.50465 -10.4573,-1.19436 -0.34747,-0.24867 -0.5461,-0.63279 -0.64309,-1.24372 -0.72741,-4.58142 -0.76284,-116.38089 -0.0385,-121.50939 0.20234,-1.4326 0.62036,-1.63458 3.49002,-1.68636 1.27583,-0.023 5.07982,-0.12906 8.4533,-0.23563 7.97718,-0.25201 38.46072,-0.58834 67.97245,-0.74996 12.88561,-0.0706 25.22692,-0.18499 27.42514,-0.25429 l 3.99677,-0.12598 c 23.20123,-0.57173 5.7879,-0.0504 23.20123,-0.57173 30.21263,0.16952 0,0 30.21263,0.16952 l 2.03146,0.14775 c 2.72242,0.19799 3.57213,0.58839 5.4975,2.52588 l 1.53983,1.54952 0.12778,54.90082 c 0.13471,57.88283 0.0643,64.94456 -0.66222,66.4307 -0.53813,1.10075 -1.36775,1.40874 -4.50344,1.67186 -3.01279,0.25281 -147.06861,0.41306 -157.64354,0.17537 z"
         id="path4196"
         inkscape:connector-curvature="0"
         sodipodi:nodetypes="cccscssscccsscssscc" />
      <path
         style="fill:#342746"
         d="m 205.87367,277.99603 c -6.26823,-0.13949 -9.71333,-0.50839 -10.34113,-1.10729 -0.18272,-0.17433 -0.34074,-1.24268 -0.4735,-3.20134 -0.31204,-4.60349 -0.46611,-93.76042 -0.18753,-108.53207 0.12828,-6.80269 0.2865,-12.67006 0.35161,-13.03862 0.0651,-0.36855 0.27128,-0.75154 0.45818,-0.85108 0.78451,-0.4178 31.9912,-0.85786 86.5393,-1.22036 16.83221,-0.11187 25.93726,-0.24402 26.18141,-0.37998 0.24243,-0.135 0.97975,-1.85485 2.09254,-4.88106 2.0864,-5.67382 3.9695,-10.41667 4.73675,-11.93017 0.87984,-1.73556 0.65565,-1.69971 11.13677,-1.78074 4.91531,-0.038 13.45186,0.002 18.97011,0.0892 l 10.0332,0.15827 1.93906,4.49764 c 1.0665,2.47371 2.1782,5.09563 2.47046,5.8265 0.29225,0.73086 0.69182,1.69682 0.88794,2.1466 0.1961,0.44975 0.75775,1.78371 1.24812,2.96435 0.49035,1.18064 0.95427,2.22152 1.03093,2.31308 0.0766,0.0916 1.09954,0.25286 2.27307,0.35842 2.90161,0.26101 3.51002,0.52593 5.27989,2.29893 l 1.49442,1.49709 0.0422,59.98878 c 0.0441,62.76904 0.042,62.94203 -0.8206,63.80045 -0.62564,0.62258 -2.35663,0.78541 -10.53935,0.99138 -8.60825,0.21668 -145.02481,0.20967 -154.80399,-0.008 z m 159.94014,-63.97742 0,-57.03573 -15.56258,0.10344 c -8.55942,0.0569 -45.66713,0.15913 -82.46161,0.2272 l -66.89901,0.12376 -0.14617,34.37143 c -0.16122,37.91397 -0.0891,78.10786 0.14063,78.3363 0.70887,0.70498 14.96326,0.83585 95.33373,0.87523 l 69.59501,0.0342 0,-57.03574 z m -144.12075,38.23872 c -6.05071,-0.15865 -8.12252,-0.3156 -8.80023,-0.66669 -0.20732,-0.10741 -0.50991,-0.51196 -0.67242,-0.89902 -0.46042,-1.09654 -0.15897,-1.42677 1.45248,-1.59105 3.45028,-0.35177 30.60219,-0.52478 83.07879,-0.52939 l 57.18479,-0.005 -0.13057,1.0733 c -0.0718,0.59032 -0.18107,1.41829 -0.24279,1.83995 l -0.11222,0.76664 -16.07535,0 c -8.84143,0 -37.14642,0.0377 -62.89994,0.0838 -25.75353,0.0461 -49.50567,0.0134 -52.78254,-0.0724 z m -4.93073,-14.93772 c -2.81803,-0.15108 -3.94356,-0.3211 -4.36573,-0.65953 -0.14124,-0.11322 -0.25681,-0.64272 -0.25681,-1.17666 l 0,-0.97079 1.79766,-0.13618 c 4.218,-0.31956 37.60181,-0.52108 87.02993,-0.52531 l 52.97718,-0.004 -0.13155,0.97108 c -0.0724,0.53409 -0.18085,1.30095 -0.24112,1.70416 l -0.1096,0.73308 -17.09107,0.13564 c -21.88363,0.17368 -116.08756,0.11781 -119.60889,-0.071 z m 9.42332,-14.52115 c -11.89489,-0.17293 -13.7625,-0.28241 -14.05374,-0.82393 -0.26296,-0.48896 0.21224,-1.70094 0.78693,-2.00699 1.5073,-0.80271 13.08653,-0.90733 81.10786,-0.73277 l 59.42207,0.15248 0.12184,0.89209 c 0.067,0.49063 0.17857,1.30605 0.2479,1.81204 l 0.12605,0.91998 -58.93512,-0.0346 c -32.41432,-0.019 -63.38503,-0.0992 -68.82379,-0.17834 z m -8.4988,-14.11518 c -4.36856,-0.19351 -5.13855,-0.39885 -5.4892,-1.46386 -0.30793,-0.93532 -0.18568,-1.30462 0.48751,-1.47277 1.5268,-0.38131 21.58734,-0.55019 78.32184,-0.65933 l 62.9451,-0.1211 -0.14069,1.2028 c -0.0773,0.66155 -0.18945,1.48668 -0.24907,1.83365 l -0.10839,0.63083 -18.93591,0.13569 c -25.13927,0.18012 -112.27147,0.11606 -116.83119,-0.0859 z m 1.54086,-14.72687 c -2.77144,-0.0924 -5.38059,-0.27971 -5.95796,-0.42762 l -1.02724,-0.26321 -0.0611,-1.04767 c -0.0483,-0.82686 0.0111,-1.07526 0.28169,-1.17859 0.8681,-0.33149 26.26932,-0.53936 81.5238,-0.66718 l 59.96695,-0.13871 -0.1415,1.20942 c -0.0779,0.66518 -0.19028,1.49317 -0.24987,1.83998 l -0.10833,0.63056 -44.51407,0.13604 c -53.08291,0.16221 -82.98888,0.1312 -89.71228,-0.093 z m 18.38746,-14.51319 c -20.3105,-0.16143 -25.17884,-0.31752 -25.48915,-0.81714 -0.17992,-0.28969 -0.0661,-1.04102 0.25113,-1.6575 0.2968,-0.5768 1.6555,-0.79643 6.11128,-0.98786 4.97081,-0.21356 86.36705,-0.25504 115.10511,-0.0586 l 19.86042,0.13572 0.10839,0.63082 c 0.0596,0.34694 0.17014,1.15979 0.24564,1.80633 l 0.13726,1.17551 -48.35497,-0.0356 c -26.59524,-0.0196 -57.18404,-0.1058 -67.97511,-0.19159 z m 117.20725,-29.62917 c 0.53958,-0.27582 0.61207,-0.41586 0.58211,-1.12441 -0.0188,-0.44515 -0.49329,-2.23531 -1.05437,-3.97815 -0.56107,-1.74283 -1.23143,-3.88855 -1.48967,-4.76823 -0.75013,-2.55523 -1.4635,-3.02153 -4.61236,-3.01488 -0.45199,9.6e-4 -6.55374,-0.0186 -13.55947,-0.0433 -13.13208,-0.0465 -14.47006,0.0207 -15.30028,0.7684 -0.23331,0.21009 -1.11898,2.53078 -2.19649,5.75539 -2.00697,6.00606 -2.00579,5.99001 -0.45874,6.26115 1.92829,0.33795 10.51267,0.51442 23.70801,0.48735 11.95706,-0.0245 13.84586,-0.0697 14.38126,-0.34328 z"
         id="path4194"
         inkscape:connector-curvature="0" />
    </g>
    <path
       style="fill:#ffffff"
       d="m 132.96362,646.56607 c -4.8334,-1.0501 -9.57188,-3.75324 -13.62838,-7.77444 -8.59368,-8.51901 -10.7985,-20.74687 -5.76751,-31.98666 1.6558,-3.69924 3.43527,-5.52735 79.96864,-82.15405 69.97917,-70.06453 78.65151,-78.56842 81.82614,-80.23663 6.39698,-3.36153 13.06684,-4.26002 19.81557,-2.66936 l 3.47113,0.81814 12.41921,-12.41078 12.41921,-12.41078 8.46426,8.46425 8.46424,8.46425 -12.41078,12.41922 -12.41077,12.41921 0.81814,3.47113 c 1.03355,4.38504 1.03876,8.44979 0.0164,12.78642 -1.90783,8.09272 3.19708,2.6186 -81.94765,87.87417 -70.66588,70.75782 -78.62098,78.5557 -81.89481,80.27606 -6.14622,3.22973 -12.8112,4.12975 -19.62305,2.64985 z M 423.70747,463.99078 c -13.08433,-1.44565 -26.41763,-4.73442 -38.44415,-9.48254 -12.9698,-5.12054 -23.31383,-10.9095 -34.63689,-19.38431 -7.04363,-5.27183 -20.12708,-18.02008 -25.50649,-24.85299 -16.23765,-20.62503 -26.10846,-43.58129 -30.28973,-70.44395 -1.3535,-8.69552 -1.33983,-30.97701 0.0244,-39.78835 6.26112,-40.4399 27.20899,-74.90477 59.47755,-97.8566 19.40324,-13.80103 42.45675,-22.71267 66.95572,-25.8826 8.78935,-1.13725 28.07947,-0.86778 37.09995,0.51828 42.09619,6.46836 78.06136,29.32484 100.69743,63.99495 28.45196,43.57793 31.4107,98.0846 7.85803,144.7628 -7.06152,13.99494 -15.11913,25.08785 -26.54708,36.54727 -22.19321,22.25432 -49.74412,36.11121 -81.73954,41.11135 -6.71039,1.04867 -28.11254,1.51206 -34.94922,0.75669 z m 33.60501,-24.66235 c 21.73493,-3.79275 40.41753,-12.14675 56.99412,-25.48512 5.58617,-4.4949 15.80666,-15.01115 20.10479,-20.68654 12.27117,-16.20324 20.50363,-36.12857 23.51075,-56.90395 1.2311,-8.50535 1.22337,-24.59962 -0.0157,-32.71926 -4.19872,-27.51385 -16.42623,-51.61296 -35.6129,-70.18928 -18.56105,-17.97058 -41.18519,-29.03617 -67.66943,-33.09745 -7.16212,-1.09829 -23.46207,-1.25341 -30.91662,-0.29422 -22.78589,2.93188 -45.5826,12.77826 -62.63977,27.05543 -23.15819,19.38387 -37.49019,44.79633 -42.55197,75.45016 -1.35806,8.22439 -1.35391,26.53399 0.008,35.21807 4.86001,30.98935 21.17269,58.88085 45.50123,77.79822 16.42997,12.77559 38.29281,21.89003 58.33832,24.32074 2.66152,0.32273 5.56499,0.68645 6.45216,0.80824 4.38604,0.60214 22.3442,-0.20136 28.49706,-1.27504 z m -36.54751,-9.99297 c -13.49549,-2.18638 -24.82143,-6.34266 -36.03934,-13.22539 -6.97305,-4.27832 -7.49784,-4.98394 -1.92686,-2.59081 17.33815,7.44796 34.45103,10.90304 54.08186,10.91911 17.6911,0.0145 33.78452,-2.95869 48.1224,-8.89031 l 2.41956,-1.00099 -1.3442,1.07439 c -2.58659,2.0674 -14.30514,7.53015 -20.7007,9.64988 -11.05542,3.66419 -15.70433,4.42233 -28.49706,4.64722 -8.14632,0.14321 -12.63502,-0.0193 -16.11566,-0.5831 z m 90.04671,-176.14903 c -3.35826,-2.93671 -12.21327,-8.91827 -18.10706,-12.23135 -27.85068,-15.65566 -64.69909,-20.6514 -95.5701,-12.95698 -2.34257,0.58387 -4.34871,0.97208 -4.4581,0.86269 -0.42589,-0.42588 11.49219,-5.2765 17.20713,-7.00324 10.19875,-3.08151 15.38187,-3.78697 27.8036,-3.78425 9.2212,0.002 11.98897,0.19656 16.93694,1.19046 23.42946,4.70623 40.23114,14.59855 57.50413,33.85666 2.24478,2.50277 1.51203,2.53951 -1.31654,0.066 z"
       id="path4230"
       inkscape:connector-curvature="0"
       sodipodi:nodetypes="cssssscccccccssssccsssssssssssssscsssssssssssssccssssscssssssscscsss" />
    <path
       style="fill:#ffffff;stroke:#ffffff;stroke-width:1.18599999;stroke-miterlimit:4;stroke-dasharray:none;stroke-opacity:1"
       d="m 50.659428,345.98083 c -0.70802,-0.30423 -0.64511,-0.35647 0.41692,-0.34604 0.68792,0.007 1.7198,0.16247 2.29307,0.34604 0.94754,0.30348 0.90964,0.33491 -0.41692,0.34605 -0.80258,0.007 -1.83446,-0.14897 -2.29307,-0.34605 z m 8.44267,0.11532 c 0.74524,-0.0925 1.96474,-0.0925 2.70999,0 0.74525,0.0925 0.1355,0.16815 -1.355,0.16815 -1.49049,0 -2.10024,-0.0757 -1.35499,-0.16815 z m 8.76282,0 c 0.74936,-0.0928 1.87505,-0.0909 2.50153,0.004 0.62649,0.0951 0.0134,0.17106 -1.36246,0.16873 -1.37584,-0.004 -1.88842,-0.0802 -1.13907,-0.17298 z m 8.75536,0 c 0.74936,-0.0928 1.87505,-0.0909 2.50153,0.004 0.62649,0.0951 0.0134,0.17106 -1.36246,0.16873 -1.37584,-0.004 -1.88842,-0.0802 -1.13907,-0.17298 z m 8.33844,0 c 0.74936,-0.0928 1.87505,-0.0909 2.50153,0.004 0.62649,0.0951 0.0134,0.17106 -1.36246,0.16873 -1.37584,-0.004 -1.88842,-0.0802 -1.13907,-0.17298 z m 8.75536,0 c 0.74936,-0.0928 1.87505,-0.0909 2.50153,0.004 0.62649,0.0951 0.0134,0.17106 -1.36246,0.16873 -1.37584,-0.004 -1.88842,-0.0802 -1.13907,-0.17298 z m 7.523192,0.0175 c 0.30096,-0.12045 0.66056,-0.1056 0.7991,0.0329 0.13854,0.13854 -0.10771,0.23706 -0.54721,0.21897 -0.48569,-0.02 -0.58448,-0.11879 -0.25189,-0.25187 z m 2.05855,-0.01 c 0.51594,-0.0994 1.36021,-0.0994 1.87615,0 0.51594,0.0994 0.0938,0.1807 -0.93808,0.1807 -1.03188,0 -1.45401,-0.0813 -0.93807,-0.1807 z m 7.51205,-0.008 c 0.74936,-0.0928 1.87505,-0.0909 2.50154,0.004 0.62649,0.0951 0.0134,0.17106 -1.36247,0.16873 -1.37584,-0.004 -1.88842,-0.0802 -1.13907,-0.17298 z m 8.75537,0 c 0.74936,-0.0928 1.87505,-0.0909 2.50153,0.004 0.62649,0.0951 0.0134,0.17106 -1.36246,0.16873 -1.37584,-0.004 -1.88842,-0.0802 -1.13907,-0.17298 z m 8.33844,0 c 0.74935,-0.0928 1.87504,-0.0909 2.50153,0.004 0.62649,0.0951 0.0134,0.17106 -1.36246,0.16873 -1.37584,-0.004 -1.88842,-0.0802 -1.13907,-0.17298 z m 8.75536,0 c 0.74935,-0.0928 1.87504,-0.0909 2.50153,0.004 0.62649,0.0951 0.0134,0.17106 -1.36246,0.16873 -1.37584,-0.004 -1.88842,-0.0802 -1.13907,-0.17298 z m 8.33097,0 c 0.74525,-0.0925 1.96474,-0.0925 2.70999,0 0.74525,0.0925 0.1355,0.16815 -1.35499,0.16815 -1.4905,0 -2.10025,-0.0757 -1.355,-0.16815 z m 8.76283,0 c 0.74935,-0.0928 1.87504,-0.0909 2.50153,0.004 0.62649,0.0951 0.0134,0.17106 -1.36246,0.16873 -1.37585,-0.004 -1.88843,-0.0802 -1.13907,-0.17298 z m 8.33097,0 c 0.74525,-0.0925 1.96474,-0.0925 2.70999,0 0.74525,0.0925 0.1355,0.16815 -1.355,0.16815 -1.49049,0 -2.10024,-0.0757 -1.35499,-0.16815 z m 8.76283,0 c 0.74935,-0.0928 1.87504,-0.0909 2.50153,0.004 0.62648,0.0951 0.0134,0.17106 -1.36247,0.16873 -1.37584,-0.004 -1.88842,-0.0802 -1.13906,-0.17298 z m 8.75536,0 c 0.74935,-0.0928 1.87504,-0.0909 2.50153,0.004 0.62648,0.0951 0.0134,0.17106 -1.36247,0.16873 -1.37584,-0.004 -1.88842,-0.0802 -1.13906,-0.17298 z m 8.33843,0 c 0.74936,-0.0928 1.87505,-0.0909 2.50153,0.004 0.62649,0.0951 0.0134,0.17106 -1.36246,0.16873 -1.37584,-0.004 -1.88842,-0.0802 -1.13907,-0.17298 z m 8.75536,0 c 0.74936,-0.0928 1.87505,-0.0909 2.50153,0.004 0.62649,0.0951 0.0134,0.17106 -1.36246,0.16873 -1.37584,-0.004 -1.88842,-0.0802 -1.13907,-0.17298 z m 8.33097,0 c 0.74525,-0.0925 1.96475,-0.0925 2.71,0 0.74524,0.0925 0.1355,0.16815 -1.355,0.16815 -1.4905,0 -2.10024,-0.0757 -1.355,-0.16815 z m 8.76283,0 c 0.74935,-0.0928 1.87504,-0.0909 2.50153,0.004 0.62649,0.0951 0.0134,0.17106 -1.36246,0.16873 -1.37584,-0.004 -1.88842,-0.0802 -1.13907,-0.17298 z m 8.75536,0 c 0.74935,-0.0928 1.87504,-0.0909 2.50153,0.004 0.62649,0.0951 0.0134,0.17106 -1.36246,0.16873 -1.37584,-0.004 -1.88842,-0.0802 -1.13907,-0.17298 z m 8.33844,0 c 0.74935,-0.0928 1.87504,-0.0909 2.50153,0.004 0.62649,0.0951 0.0134,0.17106 -1.36246,0.16873 -1.37585,-0.004 -1.88843,-0.0802 -1.13907,-0.17298 z m 8.75536,0 c 0.74935,-0.0928 1.87504,-0.0909 2.50153,0.004 0.62649,0.0951 0.0134,0.17106 -1.36246,0.16873 -1.37585,-0.004 -1.88843,-0.0802 -1.13907,-0.17298 z m 7.30868,-0.37798 c 0.45482,-0.45482 4.16438,-1.84096 4.37175,-1.63358 0.0922,0.0922 -0.36574,0.43656 -1.01765,0.76526 -1.4168,0.71431 -3.82306,1.33727 -3.3541,0.86832 z M 44.197138,343.47972 c -0.57327,-0.4484 -0.82857,-0.81946 -0.56734,-0.82459 0.26123,-0.005 0.91788,0.35972 1.45922,0.8107 1.28084,1.06707 0.47063,1.07966 -0.89188,0.0138 z m 209.678232,-1.63655 c 2.14725,-1.97963 2.39204,-2.08757 1.44041,-0.63522 -0.3833,0.58498 -1.27879,1.34945 -1.98999,1.69883 -1.15914,0.56939 -1.10222,0.45924 0.54958,-1.06361 z M 40.911228,340.48213 c -1.2637,-1.29254 -1.62572,-2.02195 -0.98754,-1.98963 0.30974,0.0158 2.74102,3.31953 2.44281,3.31953 -0.0853,0 -0.74014,-0.59845 -1.45527,-1.3299 z m 216.650912,-3.61851 c 0.6116,-1.3838 1.19259,-2.43545 1.29108,-2.33693 0.29237,0.29239 -1.18659,3.84331 -1.81952,4.36859 -0.33143,0.27509 -0.10312,-0.60274 0.52844,-2.03166 z m -17.82863,-0.23255 c 0,-1.16059 -0.16701,-1.48979 -0.75584,-1.48979 -1.5837,0 -4.40276,-4.18044 -3.4569,-5.12631 0.60826,-0.60824 1.71121,-0.0158 1.71121,0.9194 0,0.45228 0.14071,0.90989 0.31269,1.01691 0.17198,0.10703 0.25336,-1.55157 0.18084,-3.68571 -0.12162,-3.57905 -0.0589,-3.94831 0.80823,-4.75613 1.19022,-1.10886 2.45386,-1.1127 3.85354,-0.0117 1.03145,0.81134 1.10014,1.085 1.12496,4.48191 0.0189,2.59151 0.13338,3.35168 0.40348,2.67973 0.57447,-1.42921 1.6547,-1.19782 1.6547,0.35438 0,1.40607 -2.2917,4.12753 -3.47573,4.12753 -0.41765,0 -0.68614,0.47049 -0.77131,1.35158 -0.086,0.89017 -0.37973,1.39877 -0.86026,1.48978 -0.58453,0.11074 -0.72961,-0.15801 -0.72961,-1.35157 z m -1.66769,-2.89799 c 0,-0.0865 -0.32832,-0.41488 -0.72961,-0.72961 -0.66126,-0.51857 -0.67601,-0.50385 -0.15741,0.15743 0.54465,0.69451 0.88702,0.91535 0.88702,0.57218 z m 3.93098,-1.74848 c 0.48511,-0.48513 0.65516,-1.51072 0.65516,-3.95117 0,-3.05564 -0.076,-3.34578 -1.0423,-3.97892 -0.96554,-0.63264 -1.11907,-0.63264 -2.08461,0 -0.97531,0.63905 -1.0423,0.90877 -1.0423,4.19647 0,2.90636 0.12608,3.58694 0.72961,3.93845 1.05689,0.61558 2.03605,0.54354 2.78444,-0.20483 z m -181.073092,3.41642 c -1.32148,-1.36342 -1.51195,-1.42842 -3.56457,-1.21658 -3.80937,0.39316 -6.07433,-1.45568 -6.07433,-4.95832 0,-3.42443 2.9632,-5.85601 6.25518,-5.13298 2.7511,0.60425 4.72419,4.11064 3.75199,6.66771 -0.39208,1.03125 -0.26849,1.32243 1.26932,2.99074 0.93702,1.01658 1.62957,2.07344 1.539,2.34861 -0.34302,1.04209 -1.79962,0.72148 -3.17659,-0.69918 z m 1.61799,0.0333 c 0,-0.0681 -0.79736,-0.86548 -1.77192,-1.77191 l -1.77192,-1.6481 1.64808,1.77192 c 1.53268,1.64789 1.89576,1.9635 1.89576,1.64809 z m -8.33844,-2.52154 c 0,-0.0791 -0.42213,-0.50122 -0.93807,-0.93807 l -0.93808,-0.79424 0.79424,0.93807 c 0.74638,0.88154 1.08191,1.12786 1.08191,0.79424 z m 3.72248,-0.88304 c 1.92629,-0.99611 2.28291,-3.11949 0.8334,-4.96225 -1.16057,-1.47543 -3.34864,-1.50982 -4.78329,-0.0752 -1.11886,1.11885 -1.27299,2.14181 -0.55887,3.70915 0.81214,1.78246 2.60762,2.31141 4.50876,1.32827 z m 2.11443,-5.38438 c 0,-0.0865 -0.32833,-0.41488 -0.72961,-0.72961 -0.66127,-0.51858 -0.67601,-0.50384 -0.15742,0.15743 0.54466,0.69451 0.88703,0.91535 0.88703,0.57218 z m -3.23115,-1.78638 c -0.28663,-0.11565 -0.75567,-0.11565 -1.0423,0 -0.28663,0.11566 -0.0521,0.21029 0.52115,0.21029 0.57327,0 0.80779,-0.0946 0.52115,-0.21029 z m -19.03793,9.40384 c -0.33272,-1.00733 -0.4873,-4.12465 -0.20453,-4.12465 0.14886,0 0.36778,0.98497 0.4865,2.18884 0.2142,2.17237 0.0863,3.0507 -0.28197,1.93581 z M 259.16495,330.0936 c -0.44921,-1.42179 -0.64463,-4.12465 -0.2982,-4.12465 0.20989,0 0.45802,0.98497 0.55141,2.18884 0.17318,2.23245 0.0758,2.97707 -0.25321,1.93581 z M 37.952458,325.93427 c 0.0129,-0.83519 1.48373,-3.97725 2.01559,-4.30595 0.24413,-0.15089 -0.0456,0.81095 -0.64385,2.1374 -1.24629,2.76333 -1.38434,2.98159 -1.37174,2.16855 z m 216.992422,-5.96261 c -1.14308,-1.20346 -2.54737,-2.49411 -3.12063,-2.86812 -0.57327,-0.374 -0.8192,-0.68985 -0.54651,-0.70188 0.57187,-0.0252 4.08727,2.93213 5.26465,4.42893 1.4728,1.87236 0.49989,1.34926 -1.59751,-0.85893 z m -213.743172,-0.0205 c 0.51868,-0.67279 1.63936,-1.67708 2.4904,-2.23176 l 1.54733,-1.0085 -1.66769,1.60637 c -0.91722,0.88351 -2.0379,1.8878 -2.49039,2.23176 -0.70272,0.53418 -0.68517,0.44698 0.12035,-0.59787 z m 4.24619,-3.30758 c 0,-0.35104 2.0871,-1.34869 3.54384,-1.69399 1.55181,-0.36783 0.94047,0.30209 -0.83384,0.91375 -0.68793,0.23715 -1.5791,0.56425 -1.98038,0.7269 -0.40129,0.16263 -0.72962,0.18664 -0.72962,0.0533 z m 198.037912,-1.93147 c -0.94754,-0.30345 -0.90964,-0.33491 0.41692,-0.34606 0.80257,-0.007 1.83446,0.14899 2.29307,0.34606 0.70802,0.30425 0.6451,0.35647 -0.41692,0.34606 -0.68792,-0.007 -1.7198,-0.16247 -2.29307,-0.34606 z M 54.940338,314.40996 c 0.74936,-0.0928 1.87505,-0.0909 2.50153,0.004 0.62649,0.0951 0.0134,0.17105 -1.36246,0.16871 -1.37584,-0.002 -1.88842,-0.0802 -1.13907,-0.17297 z m 8.75536,0 c 0.74936,-0.0928 1.87505,-0.0909 2.50153,0.004 0.62649,0.0951 0.0134,0.17105 -1.36246,0.16871 -1.37584,-0.002 -1.88842,-0.0802 -1.13907,-0.17297 z m 7.49713,0.0261 c 0.28663,-0.11566 0.75567,-0.11566 1.0423,0 0.28664,0.11565 0.0521,0.21028 -0.52115,0.21028 -0.57327,0 -0.80778,-0.0946 -0.52115,-0.21028 z m 2.50639,-0.0188 c 0.51862,-0.0997 1.26908,-0.0959 1.66769,0.008 0.39862,0.10435 -0.0257,0.18594 -0.94294,0.18131 -0.91722,-0.005 -1.24336,-0.09 -0.72475,-0.18973 z m 6.27503,0.0101 c 0.30096,-0.12043 0.66056,-0.10563 0.7991,0.0329 0.13854,0.13854 -0.1077,0.23708 -0.54721,0.21897 -0.48569,-0.02 -0.58448,-0.1188 -0.25189,-0.25189 z m 2.06341,-0.0101 c 0.51862,-0.0997 1.26908,-0.0959 1.66769,0.008 0.39862,0.10435 -0.0257,0.18594 -0.94293,0.18131 -0.91723,-0.005 -1.24337,-0.09 -0.72476,-0.18973 z m 7.08282,-0.007 c 0.74524,-0.0925 1.96474,-0.0925 2.70999,0 0.74525,0.0925 0.1355,0.16816 -1.355,0.16816 -1.49049,0 -2.10024,-0.0757 -1.35499,-0.16816 z m 8.34329,0.007 c 0.51862,-0.0997 1.26908,-0.0959 1.66769,0.008 0.39862,0.10435 -0.0257,0.18594 -0.94293,0.18131 -0.91723,-0.005 -1.24337,-0.09 -0.72476,-0.18973 z m 2.939652,0.0101 c 0.30097,-0.12043 0.66056,-0.10562 0.79911,0.0329 0.13853,0.13854 -0.10771,0.23708 -0.54721,0.21897 -0.4857,-0.02 -0.58449,-0.11879 -0.2519,-0.25188 z m 6.23524,-0.0173 c 0.74936,-0.0928 1.87505,-0.0909 2.50153,0.004 0.62648,0.0951 0.0134,0.17105 -1.36246,0.16871 -1.37584,-0.002 -1.88842,-0.0802 -1.13907,-0.17296 z m 8.33097,4.2e-4 c 0.74525,-0.0925 1.96475,-0.0925 2.71,0 0.74524,0.0925 0.1355,0.16815 -1.355,0.16815 -1.4905,0 -2.10024,-0.0757 -1.355,-0.16815 z m 8.76283,-4.2e-4 c 0.74936,-0.0928 1.87504,-0.0909 2.50153,0.004 0.62649,0.0951 0.0134,0.17105 -1.36246,0.16871 -1.37584,-0.002 -1.88842,-0.0802 -1.13907,-0.17296 z m 7.52319,0.0173 c 0.30096,-0.12043 0.66056,-0.10562 0.7991,0.0329 0.13854,0.13854 -0.10771,0.23708 -0.54721,0.21897 -0.4857,-0.02 -0.58449,-0.11879 -0.25189,-0.25188 z m 2.48033,-0.0101 c 0.51861,-0.0997 1.26907,-0.0959 1.66769,0.008 0.39861,0.10435 -0.0257,0.18594 -0.94294,0.18131 -0.91723,-0.005 -1.24336,-0.09 -0.72475,-0.18973 z m 7.09028,-0.007 c 0.74935,-0.0928 1.87504,-0.0909 2.50153,0.004 0.62649,0.0951 0.0134,0.17105 -1.36246,0.16871 -1.37585,-0.002 -1.88843,-0.0802 -1.13907,-0.17296 z m 8.33097,4.1e-4 c 0.74525,-0.0925 1.96474,-0.0925 2.70999,0 0.74525,0.0925 0.1355,0.16816 -1.35499,0.16816 -1.4905,0 -2.10025,-0.0757 -1.355,-0.16816 z m 8.76283,-4.1e-4 c 0.74935,-0.0928 1.87504,-0.0909 2.50153,0.004 0.62649,0.0951 0.0134,0.17105 -1.36247,0.16871 -1.37584,-0.002 -1.88842,-0.0802 -1.13906,-0.17296 z m 8.75536,0 c 0.74935,-0.0928 1.87504,-0.0909 2.50153,0.004 0.62649,0.0951 0.0134,0.17105 -1.36247,0.16871 -1.37584,-0.002 -1.88842,-0.0802 -1.13906,-0.17296 z m 7.91891,0.007 c 0.51861,-0.0997 1.26907,-0.0959 1.66768,0.008 0.39862,0.10435 -0.0257,0.18594 -0.94293,0.18131 -0.91723,-0.005 -1.24337,-0.09 -0.72475,-0.18973 z m 2.91359,0.0188 c 0.28663,-0.11566 0.75567,-0.11566 1.0423,0 0.28664,0.11566 0.0521,0.21029 -0.52115,0.21029 -0.57327,0 -0.80779,-0.0946 -0.52115,-0.21029 z m 6.26129,-0.0261 c 0.74936,-0.0928 1.87505,-0.0909 2.50153,0.004 0.62649,0.0951 0.0134,0.17105 -1.36246,0.16871 -1.37584,-0.002 -1.88842,-0.0802 -1.13907,-0.17296 z m 7.49713,0.0261 c 0.28663,-0.11566 0.75567,-0.11566 1.04231,0 0.28663,0.11566 0.0521,0.21029 -0.52116,0.21029 -0.57326,0 -0.80778,-0.0946 -0.52115,-0.21029 z m 2.50639,-0.0188 c 0.51862,-0.0997 1.26908,-0.0959 1.66769,0.008 0.39862,0.10435 -0.0257,0.18594 -0.94293,0.18131 -0.91723,-0.005 -1.24337,-0.09 -0.72476,-0.18973 z m 7.09028,-0.007 c 0.74936,-0.0928 1.87504,-0.0909 2.50153,0.004 0.62649,0.0951 0.0134,0.17105 -1.36246,0.16871 -1.37584,-0.002 -1.88842,-0.0802 -1.13907,-0.17296 z m 9.37901,0.003 c 0.63375,-0.0958 1.57182,-0.0933 2.08461,0.006 0.51279,0.099 -0.006,0.17737 -1.15227,0.17424 -1.14653,-0.003 -1.56609,-0.0841 -0.93234,-0.17993 z m 7.29526,0.004 c 0.51861,-0.0997 1.26907,-0.0959 1.66769,0.008 0.39861,0.10436 -0.0257,0.18595 -0.94294,0.18132 -0.91722,-0.005 -1.24336,-0.09 -0.72475,-0.18973 z m 2.91359,0.0188 c 0.28664,-0.11566 0.75567,-0.11566 1.04231,0 0.28663,0.11566 0.0521,0.21029 -0.52115,0.21029 -0.57327,0 -0.80779,-0.0946 -0.52116,-0.21029 z m 6.2613,-0.026 c 0.74935,-0.0928 1.87504,-0.0909 2.50153,0.004 0.62649,0.0951 0.0134,0.17105 -1.36246,0.16871 -1.37585,-0.002 -1.88843,-0.0802 -1.13907,-0.17296 z m 8.33097,4.1e-4 c 0.74525,-0.0925 1.96474,-0.0925 2.70999,0 0.74525,0.0925 0.1355,0.16816 -1.35499,0.16816 -1.4905,0 -2.10025,-0.0757 -1.355,-0.16816 z"
       id="path4168"
       inkscape:connector-curvature="0" />
    <path
       inkscape:connector-curvature="0"
       id="path4243"
       d="m 174.79511,465.08501 c -0.7184,-0.16936 -1.16739,-0.42377 -1.61643,-0.76274 -0.62858,-0.42376 -0.9878,-0.84749 -1.34702,-1.44075 -0.2694,-0.50849 -0.2694,-0.59321 -0.2694,-1.18646 -0.09,-0.8475 0.0899,-1.61023 0.44903,-2.45769 0.17946,-0.59325 1.25721,-3.47471 1.7062,-4.57634 0.0899,-0.33912 0.44904,-1.35594 0.80821,-2.37293 0.35935,-0.93225 0.80822,-2.20348 1.07762,-2.79669 0.17946,-0.67802 0.44904,-1.27123 0.44904,-1.44075 0.0899,-0.16937 0.17946,-0.33913 0.17946,-0.42373 0,0 -3.68189,-0.0849 -22.71956,-0.0849 l -22.7196,0 -0.89803,-0.16937 c -1.9756,-0.33912 -3.77166,-0.84749 -5.47782,-1.61023 -5.38804,-2.62718 -9.1597,-7.45776 -10.05769,-13.22063 -0.17946,-1.18647 -0.2694,-7.03411 -0.2694,-35.42462 l 0,-26.1023 11.13531,0 11.1353,0 0,25.67857 c 0.0899,24.23795 0.0899,25.67865 0.17946,26.10238 0.17946,0.59326 0.7184,1.52548 1.16739,2.03385 0.71831,0.84749 1.6163,1.35598 2.78373,1.77971 l 0.62863,0.16937 8.4413,0 c 16.25394,-0.0849 26.67081,-0.0849 26.67081,-0.16937 0,-0.16936 -4.13088,-11.69516 -4.31047,-12.20365 -0.2694,-0.50849 -0.35935,-1.27123 -0.35935,-1.9492 0,-1.01698 0.35935,-1.86448 1.16743,-2.62722 1.16739,-1.10162 2.78382,-1.52535 4.31047,-1.10162 0.7184,0.16937 1.16739,0.42377 1.79602,0.93214 0.2694,0.16936 0.71839,0.42373 0.89803,0.59325 0.2694,0.25425 0.9878,0.76274 1.61642,1.18647 0.53881,0.42373 1.79601,1.27122 2.60423,1.9492 1.70624,1.1865 5.56754,3.9832 6.37576,4.49169 0.17946,0.16937 0.62862,0.50849 0.98784,0.76274 0.62858,0.50849 1.16739,0.84746 1.9756,1.44071 0.17946,0.16936 0.71844,0.50849 1.16744,0.8475 0.35934,0.25424 0.9878,0.67797 1.2572,0.93221 2.06546,1.44071 2.78386,1.9492 3.59207,2.54246 0.44899,0.33872 1.43684,1.01686 2.06542,1.52535 0.62862,0.42373 1.88574,1.35599 2.87355,2.03396 0.89802,0.67797 2.15523,1.61023 2.69404,1.9492 0.53881,0.42377 1.2572,0.93226 1.61642,1.18651 2.33483,1.69495 5.56768,4.06792 7.00451,5.0849 0.89803,0.67798 1.61643,1.18647 1.61643,1.27123 0,0 -0.17946,0.16936 -0.44899,0.33912 -0.26941,0.16937 -0.89803,0.67798 -1.52666,1.01699 -1.2572,0.93209 -2.245,1.61011 -3.05322,2.20332 -0.71844,0.50849 -0.98784,0.59325 -3.05326,2.11873 -0.80821,0.50849 -2.15523,1.4407 -2.96344,2.03396 -0.80822,0.59325 -1.79602,1.27122 -2.24505,1.52547 -2.15511,1.52547 -9.15962,6.44089 -11.67407,8.22061 -1.79602,1.27111 -3.41244,2.28809 -4.66965,3.22031 -0.80808,0.59325 -1.25712,0.93226 -2.78373,1.94924 -0.2694,0.16936 -0.89803,0.59321 -1.43684,1.01698 -2.15523,1.44071 -3.14303,2.11868 -3.59202,2.45769 -0.26941,0.16936 -0.62863,0.50849 -0.80822,0.67797 -1.25725,0.93226 -2.78386,1.27123 -4.13088,0.8475 z"
       style="fill:#ffffff;fill-opacity:1;fill-rule:nonzero;stroke:none" />
    <path
       inkscape:connector-curvature="0"
       id="path4243-8"
       d="m 408.16492,506.35803 c 0.14472,-0.61387 0.36211,-0.99753 0.65176,-1.38123 0.3621,-0.53712 0.72418,-0.84408 1.23112,-1.15103 0.4345,-0.2302 0.5069,-0.2302 1.01383,-0.2302 0.72418,-0.0769 1.37593,0.0768 2.10009,0.38369 0.50693,0.15335 2.96913,1.07429 3.91047,1.45795 0.28977,0.0768 1.15864,0.3837 2.02766,0.69061 0.7966,0.30707 1.88287,0.69062 2.38976,0.92083 0.57937,0.15334 1.08627,0.3837 1.23112,0.3837 0.14473,0.0768 0.28979,0.15335 0.36208,0.15335 0,0 0.44047,-15.03155 0.44047,-31.29919 17.5636,-0.14053 0,0 17.5636,-0.14053 0.0725,13.88895 -0.1169,31.43957 -0.0447,31.43957 0.14472,0 9.99349,-3.52982 10.42799,-3.68328 0.4345,-0.23021 1.08626,-0.30707 1.66559,-0.30707 0.869,0 1.59319,0.30707 2.24495,0.99757 0.94133,0.99753 1.30341,2.37877 0.94133,3.68328 -0.14473,0.61388 -0.36211,0.99754 -0.79651,1.5347 -0.14472,0.2302 -0.36208,0.61386 -0.50693,0.76736 -0.21726,0.2302 -0.65176,0.84408 -1.01384,1.38123 -0.36207,0.46041 -1.08625,1.53469 -1.66558,2.22531 -1.01386,1.45798 -3.40364,4.75745 -3.83814,5.44807 -0.14473,0.15335 -0.4345,0.53715 -0.65176,0.84411 -0.4345,0.53712 -0.72415,0.99753 -1.23108,1.68814 -0.14472,0.15335 -0.43451,0.61391 -0.72419,0.99758 -0.21725,0.30705 -0.57932,0.84407 -0.79657,1.07427 -1.23108,1.76493 -1.66559,2.3788 -2.17253,3.06941 -0.28943,0.38366 -0.8689,1.22778 -1.3034,1.7649 -0.36208,0.53715 -1.15869,1.61136 -1.73802,2.45544 -0.57932,0.76736 -1.37594,1.84164 -1.66558,2.30205 -0.36211,0.46041 -0.79662,1.07428 -1.01387,1.38123 -1.44833,1.9951 -3.47603,4.75757 -4.34504,5.98533 -0.57933,0.76737 -1.01383,1.38124 -1.08626,1.38124 0,0 -0.14472,-0.15335 -0.28978,-0.38366 -0.14472,-0.23021 -0.57933,-0.76737 -0.86901,-1.30453 -0.79647,-1.07427 -1.37584,-1.91834 -1.88274,-2.60897 -0.4345,-0.6139 -0.50693,-0.8441 -1.81044,-2.609 -0.43451,-0.69061 -1.23108,-1.84164 -1.73802,-2.53225 -0.50693,-0.69062 -1.08625,-1.5347 -1.30351,-1.91839 -1.30351,-1.84154 -5.50372,-7.82687 -7.02449,-9.97546 -1.08616,-1.5347 -1.95517,-2.91593 -2.75175,-3.99021 -0.50693,-0.6905 -0.79661,-1.0742 -1.66562,-2.37869 -0.14471,-0.2302 -0.50689,-0.76736 -0.869,-1.22777 -1.23109,-1.84164 -1.81041,-2.68572 -2.10009,-3.06938 -0.14472,-0.23021 -0.43451,-0.53716 -0.57933,-0.69062 -0.79661,-1.07432 -1.08626,-2.3788 -0.72418,-3.52983 z"
       style="fill:#ffffff;fill-opacity:1;fill-rule:nonzero;stroke:none"
       sodipodi:nodetypes="ccccccccccccscscccccccccccccccccccccccccccccccc" />
    <g
       id="g4303">
      <path
         inkscape:transform-center-y="-11.875633"
         inkscape:transform-center-x="15.675873"
         inkscape:connector-curvature="0"
         id="path4288"
         d="m 471.86989,731.82984 c -0.29891,-0.0571 -0.60119,-0.25425 -0.67178,-0.43821 -0.0706,-0.18397 -0.40799,-0.33609 -0.74977,-0.33806 -0.79048,-0.004 -1.13908,-0.23938 -1.13449,-0.76403 0.004,-0.29904 0.25788,-0.45562 0.91361,-0.56051 1.74128,-0.27844 2.11306,-1.77504 0.75834,-3.05273 -0.86786,-0.81848 -1.6702,-0.99072 -2.73493,-0.58719 -0.29707,0.11258 -1.14271,0.39229 -1.87927,0.62161 -1.56295,0.48664 -2.30874,0.29524 -3.61727,-0.92826 -1.81484,-1.69697 -2.19839,-2.01421 -2.43506,-2.01421 -0.33123,0 -0.3049,-0.26081 0.0772,-0.76416 0.21515,-0.28338 0.63793,-0.41144 1.35835,-0.41144 1.40094,0 1.89935,-0.39015 1.80098,-1.40974 -0.0597,-0.61847 -0.25517,-0.9046 -0.8575,-1.25504 -0.58072,-0.33783 -0.84822,-0.38586 -1.04631,-0.18777 -0.14635,0.1464 -0.97069,0.26615 -1.83186,0.26615 -1.49731,0 -1.61348,-0.042 -2.65695,-0.9605 -0.60013,-0.52827 -1.09114,-1.10081 -1.09114,-1.27227 0,-0.1715 -0.30473,-0.56825 -0.67721,-0.88163 -0.37243,-0.31339 -0.7499,-0.79893 -0.83877,-1.07899 -0.15794,-0.49762 -0.11123,-0.50912 2.06188,-0.50912 1.80487,0 2.32361,-0.0811 2.75527,-0.43061 1.05532,-0.85456 0.10151,-2.08738 -2.20347,-2.84808 -0.66285,-0.21878 -0.86256,-0.4107 -0.86256,-0.8288 0,-0.39802 -0.17356,-0.58697 -0.64664,-0.70389 -0.8878,-0.21943 -1.93976,-1.27323 -1.93976,-1.94308 0,-0.30425 -0.21484,-0.97428 -0.47741,-1.489 -0.43576,-0.85412 -0.44333,-0.94882 -0.0869,-1.08563 0.2148,-0.0824 0.72059,0.0175 1.12399,0.22206 0.4034,0.20457 1.28907,0.50571 1.96815,0.66929 1.14084,0.27476 1.26094,0.26269 1.57967,-0.15864 0.18969,-0.2508 0.35778,-0.66758 0.37357,-0.92625 0.0192,-0.31549 0.0996,-0.22521 0.24428,0.27441 0.11857,0.40957 0.54537,1.02217 0.94842,1.36132 0.66094,0.55614 0.78188,0.58409 1.23273,0.28487 0.27494,-0.18243 0.82089,-0.78738 1.21318,-1.3443 0.98241,-1.39478 1.22582,-1.4055 1.39268,-0.0613 0.0772,0.62201 0.24336,1.45584 0.3692,1.85299 0.56917,1.79612 -0.0439,3.76795 -1.52197,4.89535 -0.72759,0.55496 -0.83445,0.76499 -0.82679,1.62467 0.007,0.77794 0.17998,1.18676 0.81594,1.92783 0.67589,0.78755 0.87517,0.89834 1.2256,0.68136 0.23015,-0.14255 0.45081,-0.47536 0.4904,-0.73962 0.0394,-0.26423 0.2776,-0.66662 0.52901,-0.89415 0.25141,-0.22753 0.45712,-0.60889 0.45712,-0.84748 0,-0.2386 0.0996,-0.4338 0.22127,-0.4338 0.12172,0 0.30792,-0.43795 0.41377,-0.97323 0.13589,-0.68704 0.34544,-1.02978 0.7128,-1.16567 0.46267,-0.17115 0.54818,-0.0893 0.77098,0.73808 0.13782,0.51179 0.35228,0.93054 0.47662,0.93054 0.12435,0 0.22609,0.35393 0.22609,0.78651 0,0.4879 0.17854,0.94808 0.47023,1.21208 0.46096,0.41714 0.68473,1.99855 0.28277,1.99855 -0.41057,0 -2.65878,3.11568 -2.58858,3.58735 0.0765,0.51341 2.40164,2.27463 3.01652,2.28486 0.41862,0.007 0.83816,-1.374 1.21252,-3.99119 0.13874,-0.9699 0.2826,-1.79835 0.31973,-1.841 0.0372,-0.0429 0.4757,0.15742 0.97467,0.44456 0.64943,0.37375 1.10388,0.91353 1.59948,1.89979 0.38074,0.75772 0.78148,1.37767 0.89052,1.37767 0.10908,0 0.14048,0.0935 0.0699,0.20776 -0.25198,0.40765 -0.60425,3.59186 -0.4607,4.16383 0.15405,0.61387 1.15929,1.27144 1.94361,1.27144 0.92092,0 1.20413,-0.61422 1.20413,-2.61146 0,-1.78816 0.38923,-3.03157 0.94895,-3.03157 0.1603,0 1.04448,0.85439 2.69688,2.60612 0.19319,0.20483 0.35131,0.59402 0.35131,0.86489 0,0.27092 0.1645,0.65704 0.36556,0.85811 0.3273,0.3273 0.32857,0.44605 0.0122,1.13366 -0.19437,0.42243 -0.38534,1.08546 -0.42435,1.47342 -0.0646,0.64169 -0.15129,0.70765 -0.96046,0.73048 -0.53523,0.0149 -1.09709,0.21428 -1.41074,0.50011 -0.28671,0.2612 -0.913,0.60031 -1.39176,0.75357 -0.47877,0.15322 -0.93159,0.47106 -1.00625,0.70633 -0.19814,0.62424 -2.05821,0.89122 -3.83947,0.55102 z m 19.3262,-0.27052 c -0.23645,-0.27621 -0.53422,-0.50216 -0.66167,-0.50216 -0.12746,0 -0.62061,-0.37974 -1.09587,-0.84381 -0.69282,-0.67655 -1.06775,-0.85408 -1.89095,-0.89563 -0.846,-0.0429 -1.03958,-0.13944 -1.09964,-0.54984 -0.0402,-0.27394 -0.22525,-0.6245 -0.41149,-0.77907 -0.3863,-0.32061 -0.48327,-2.80981 -0.10948,-2.80981 0.12601,0 0.40485,-0.34388 0.61969,-0.76416 0.2148,-0.42029 0.53492,-0.84875 0.71141,-0.95219 0.17644,-0.1034 0.32082,-0.32507 0.32082,-0.49258 0,-0.16752 0.20282,-0.48808 0.45068,-0.71242 0.94423,-0.85452 2.03818,0.72291 2.34203,3.37719 0.1383,1.20828 0.18961,1.28998 0.9308,1.48151 0.97743,0.25264 1.26099,0.0341 1.80483,-1.38975 0.32494,-0.8508 0.35761,-1.18649 0.14823,-1.52179 -0.39535,-0.63299 -0.34978,-3.42338 0.0597,-3.65786 0.18065,-0.1034 0.56642,-0.59332 0.85732,-1.08861 0.62367,-1.06193 1.43695,-1.46126 2.11442,-1.03822 0.38459,0.24016 0.44211,0.46874 0.33949,1.34911 -0.0679,0.58299 0.0131,1.64191 0.18003,2.35314 0.29646,1.26317 0.32411,1.29492 1.18982,1.3667 0.74771,0.062 1.0136,-0.0538 1.70043,-0.74063 0.44779,-0.44779 0.81415,-1.02344 0.81415,-1.27922 0,-0.76984 -0.64611,-2.0729 -1.40318,-2.83002 -0.61956,-0.61956 -0.71294,-0.88089 -0.71294,-1.9954 0,-0.85316 0.11805,-1.38047 0.35267,-1.5752 0.19398,-0.161 0.3527,-0.53562 0.3527,-0.83252 0,-0.84853 0.24761,-1.28364 0.73053,-1.28364 0.2448,0 0.44674,-0.13222 0.44871,-0.29388 0.004,-0.19757 0.0602,-0.21121 0.17635,-0.0415 0.095,0.13874 0.35787,0.3206 0.58422,0.4041 0.2263,0.0835 0.41145,0.31811 0.41145,0.52136 0,0.2033 0.22215,0.67008 0.49363,1.03727 0.39728,0.53732 0.44316,0.76192 0.2351,1.15067 -0.37856,0.70734 -0.32437,0.93015 0.33075,1.35935 0.77308,0.50654 1.8075,0.11123 2.43851,-0.93189 0.85422,-1.41206 0.83782,-1.69225 -0.16301,-2.78497 -1.27463,-1.39167 -2.63109,-3.57987 -2.62213,-4.22987 0.004,-0.29716 0.16284,-0.7457 0.35271,-0.99672 0.18987,-0.25106 0.34518,-0.74675 0.34518,-1.10155 0,-0.89533 0.36273,-1.75982 0.81048,-1.93163 0.2812,-0.1079 0.52342,0.16651 0.95897,1.08638 0.40218,0.84945 0.80317,1.3283 1.29422,1.54568 0.93107,0.41215 1.3035,0.24192 1.48786,-0.67996 0.285,-1.42488 0.14994,-2.33018 -0.55439,-3.71612 -0.38791,-0.76346 -0.70537,-1.55705 -0.70537,-1.76354 0,-0.20645 0.26453,-0.95368 0.58785,-1.66049 0.32327,-0.70682 0.5878,-1.44193 0.5878,-1.63364 0,-1.14175 1.05086,-1.55368 1.31176,-0.51419 0.0798,0.31802 0.29467,0.70231 0.4775,0.85404 0.51323,0.42593 1.26737,2.30262 1.26737,3.15386 0,0.42033 -0.15869,0.89598 -0.35267,1.05698 -0.19398,0.16096 -0.3527,0.38985 -0.3527,0.50855 0,0.11871 -0.22504,0.52023 -0.50007,0.89223 -0.38555,0.52149 -0.46489,0.86392 -0.34649,1.4952 0.22066,1.17609 0.62288,1.43607 1.59409,1.03026 0.43371,-0.18125 1.30433,-0.40685 1.93469,-0.50137 l 1.14608,-0.17185 -0.14796,0.92533 c -0.16009,1.00113 -1.23448,3.11056 -1.5843,3.11056 -0.11827,0 -0.21502,0.11088 -0.21502,0.24638 0,0.40917 -1.24611,1.36639 -1.99859,1.53527 -1.19743,0.26873 -2.3981,1.09994 -2.76813,1.91636 -0.33311,0.73498 -0.32494,0.79954 0.14285,1.12719 0.35013,0.24524 1.13003,0.34754 2.64881,0.34754 1.64404,0 2.22301,0.0849 2.45076,0.35927 0.24437,0.29445 0.22648,0.43227 -0.0991,0.76416 -0.21847,0.22272 -0.68355,0.72453 -1.03354,1.11516 -0.34995,0.39063 -1.13025,1.10479 -1.73393,1.5871 -1.07343,0.85754 -1.14171,0.87687 -3.09621,0.87687 -2.39018,0 -2.65196,0.0836 -3.12491,0.9982 -0.32624,0.63084 -0.32716,0.74413 -0.009,1.06241 0.19595,0.19595 0.89323,0.40786 1.54948,0.47093 0.93601,0.0899 1.19319,0.20335 1.19319,0.52622 0,0.22635 -0.15873,0.54324 -0.35271,0.70424 -0.19398,0.161 -0.35446,0.41202 -0.35656,0.5578 -0.007,0.45247 -2.01193,2.22957 -2.71494,2.40601 -0.41665,0.10458 -1.2011,0.0101 -2.08957,-0.2518 -2.10806,-0.62126 -3.49917,-0.71565 -3.87497,-0.26282 -0.16997,0.20478 -0.45103,0.3723 -0.62463,0.3723 -0.40117,0 -0.80243,0.74058 -0.80243,1.4809 0,0.40799 0.2843,0.76525 0.99461,1.24987 2.13077,1.4537 2.27708,1.73664 0.89809,1.73664 -0.60289,0 -1.00197,0.13065 -1.13716,0.37226 -0.15239,0.27228 -0.71745,0.40721 -2.10282,0.50217 -1.73082,0.11862 -1.93163,0.0865 -2.32445,-0.37231 z m -3.44594,-14.83569 c -1.00284,-0.19442 -1.82412,-0.86988 -2.72697,-2.24283 -0.58474,-0.88921 -0.61846,-1.10086 -0.61846,-3.87961 0,-2.82657 0.0262,-2.9828 0.68394,-4.08147 0.37615,-0.62835 1.10619,-1.44832 1.62235,-1.82224 0.84686,-0.61343 1.12027,-0.67983 2.80062,-0.67983 1.66837,0 1.96443,0.0706 2.84502,0.67804 1.49591,1.03192 1.76477,1.4376 2.27511,3.433 0.57927,2.26487 0.5801,2.44748 0.021,4.68379 -0.85176,3.40837 -3.05535,4.65693 -6.90286,3.91115 z m 3.1399,-3.24974 c 0.72712,-0.64965 0.73206,-0.67003 0.71815,-2.94929 -0.0122,-1.96946 -0.0849,-2.38537 -0.51301,-2.93145 -0.60123,-0.76682 -1.48226,-1.04872 -2.22297,-0.71123 -0.57936,0.26396 -1.52845,2.45054 -1.52845,3.52144 0,0.99229 0.94493,3.45386 1.36885,3.56592 0.93128,0.24607 1.48978,0.11901 2.17743,-0.49539 z m -13.91228,3.18181 c -0.0114,-0.0324 -0.0376,-2.10409 -0.0588,-4.60392 -0.0359,-4.23862 -0.0698,-4.56819 -0.50514,-4.88652 -0.25679,-0.18773 -0.78581,-0.31147 -1.17565,-0.2749 l -0.70878,0.0664 0,-1.41075 0,-1.41079 2.44844,-0.0674 c 1.34662,-0.0372 2.53627,0.0206 2.64365,0.12781 0.14547,0.14547 0.32078,10.17705 0.21362,12.22493 -0.0105,0.20076 -0.46245,0.29393 -1.42614,0.29393 -0.77588,0 -1.41993,-0.0267 -1.43122,-0.0588 z m -19.20303,-11.75632 c -0.5362,-0.66806 -1.23584,-2.44005 -1.37366,-3.47914 -0.12474,-0.94025 -0.0699,-1.18864 0.35691,-1.61544 0.27739,-0.27739 0.57192,-0.84219 0.6545,-1.25508 0.13642,-0.68211 0.90942,-1.81109 1.07409,-1.56873 0.24822,0.36543 0.87722,1.93438 0.87722,2.18815 0,0.16953 0.21161,0.49976 0.47024,0.73381 0.50898,0.46065 0.64597,1.9154 0.24935,2.64837 -0.12151,0.22455 -0.2815,0.69632 -0.35555,1.04837 -0.14254,0.67781 -0.96872,1.59361 -1.43764,1.59361 -0.15379,0 -0.38574,-0.13226 -0.51546,-0.29392 z m 25.10166,-2.98258 c -0.32331,-0.0987 -1.02545,-0.40305 -1.56029,-0.67629 -3.50787,-1.7921 -4.16216,-7.87189 -1.1599,-10.77784 1.50522,-1.45698 3.5091,-1.84249 6.36462,-1.22446 1.59397,0.34501 2.92948,1.77382 3.61775,3.87047 0.27332,0.83261 0.49696,1.70629 0.49696,1.94151 0,0.8823 -0.95809,4.13059 -1.35292,4.58691 -0.81879,0.94633 -1.59821,1.55955 -2.17394,1.71036 -0.32332,0.0847 -0.79652,0.29689 -1.05161,0.47159 -0.49617,0.3398 -2.21483,0.39259 -3.18067,0.0978 z m 2.44923,-2.87065 c 0.32472,-0.14792 0.87049,-0.67318 1.21283,-1.16716 0.56296,-0.81236 0.61409,-1.06377 0.53497,-2.63071 -0.0629,-1.24497 -0.20256,-1.84751 -0.49639,-2.14135 -0.22486,-0.2249 -0.40887,-0.49941 -0.40887,-0.61002 0,-0.22797 -1.33622,-0.94091 -1.76345,-0.94091 -0.53007,0 -1.75244,0.73477 -2.22792,1.33924 -0.39006,0.49586 -0.47605,0.95337 -0.47605,2.5329 0,1.90967 0.008,1.93696 0.90438,2.90739 0.95989,1.03971 1.61986,1.21213 2.7205,0.71062 z m -14.55878,2.29973 c -0.29913,-0.4565 -0.35586,-1.30302 -0.31807,-4.74419 0.0529,-4.81658 0.19809,-4.5304 -2.31268,-4.55892 -0.80059,-0.009 -1.50517,-0.0967 -1.56575,-0.19468 -0.0605,-0.098 -0.1813,-0.5578 -0.26838,-1.02186 -0.29436,-1.56908 -0.10476,-1.62148 5.86421,-1.62148 5.90418,0 5.85069,-0.0158 5.72818,1.68726 l -0.0732,1.01666 -1.99107,0.0691 c -1.2217,0.0424 -2.06406,0.17867 -2.17993,0.35266 -0.10383,0.15597 -0.17005,2.21029 -0.14718,4.56513 0.0469,4.82131 -0.007,5.00593 -1.46577,5.00593 -0.69325,0 -0.99186,-0.13061 -1.27038,-0.55566 z m 21.1609,0.3189 c -0.15676,-0.25364 -0.17351,-11.9426 -0.0175,-12.19506 0.16034,-0.25946 5.73802,-0.35232 7.19242,-0.11976 0.5511,0.0881 1.23465,0.44592 1.7449,0.91326 l 0.83886,0.76836 0,2.2168 c 0,2.11874 -0.0284,2.24283 -0.64658,2.80574 -1.15785,1.05467 -1.87022,1.36019 -3.50526,1.5033 -2.78418,0.24375 -2.62217,0.12299 -2.35886,1.75807 0.33543,2.08283 0.13974,2.36792 -1.67633,2.44215 -0.81236,0.0332 -1.51961,-0.009 -1.5717,-0.0929 z m 6.33987,-7.46124 c 0.71232,-0.76818 0.74285,-1.09127 0.15851,-1.67562 -0.55793,-0.55793 -2.51589,-0.87897 -2.98516,-0.48948 -0.42777,0.35498 -0.46315,2.48453 -0.0441,2.65358 0.16161,0.0652 0.73927,0.12697 1.28364,0.13716 0.79049,0.0149 1.11004,-0.11114 1.5871,-0.62564 z"
         style="fill:#ffff00" />
      <path
         sodipodi:nodetypes="cssssccsscsscscccccccssssccsscsscsssssssssssscsssscssssscsccccsssscssssccsssccscsccscsscccscccssssssscsssscssscscssccsssscsssssscccssccssccssssscsscccssssccscsscsccccscsscsscscsscssccscssscssccsscsssssscssccssssssssssscscssscsssscssccscsssscscscsscccssscscsssscsssccsccccccccsccccccssccccccsccccssscccccccccccccccsccccccccccccccccccscscccccccccscccscssscccscsssssscssscssssscssssccssscccscsscsssssscccssscccccccscscccsccscccccscccscccscccccc"
         inkscape:connector-curvature="0"
         id="path4301"
         d="m 457.65256,795.78803 c -0.46495,-0.49759 -1.09186,-1.18438 -1.3931,-1.52618 -1.18649,-1.34617 -3.24488,-3.64125 -4.06536,-4.53282 -0.47525,-0.51642 -1.32181,-1.46078 -1.88126,-2.09851 -0.55945,-0.6378 -1.41229,-1.58467 -1.89519,-2.10428 l -0.878,-0.94459 -1.5476,0.33694 c -0.85117,0.18541 -3.55457,0.76579 -6.00755,1.28981 -2.45299,0.52402 -5.60776,1.20436 -7.01061,1.51175 -1.40286,0.30747 -2.58766,0.52197 -2.63291,0.47677 -0.0453,-0.0448 0.54974,-1.93725 1.32216,-4.20453 2.39379,-7.02638 5.42919,-15.90547 6.27748,-18.36287 1.29072,-3.73892 1.77318,-5.25227 1.69833,-5.32708 -0.0384,-0.038 -27.63395,-0.0878 -61.32355,-0.10991 l -61.25383,-0.0403 -0.0393,-97.4537 -0.0393,-97.45371 118.46322,-4.7e-4 118.46321,-4.7e-4 -0.0393,97.45423 -0.0393,97.4542 -14.04498,0.0403 c -8.99992,0.0258 -14.04499,0.0949 -14.04499,0.1927 0,0.084 0.39083,1.29839 0.86848,2.69864 2.09324,6.13625 3.56687,10.48859 4.06761,12.01356 0.29676,0.90372 0.60264,1.78397 0.67975,1.95609 0.0771,0.17212 0.24837,0.66507 0.38057,1.09544 0.13218,0.43036 0.91332,2.75423 1.73586,5.16416 1.39147,4.07693 1.63605,4.92946 1.41417,4.92946 -0.0938,0 -1.95507,-0.39322 -2.96508,-0.62648 -0.88725,-0.20486 -4.66836,-1.02237 -6.88556,-1.48866 -1.03283,-0.21724 -2.89898,-0.61441 -4.14698,-0.88253 -1.24801,-0.26813 -2.44516,-0.5181 -2.66034,-0.55547 -0.44989,-0.0782 -0.54546,0 -2.19086,1.83038 -0.64552,0.71741 -1.26999,1.40177 -1.38771,1.52079 -0.11772,0.1191 -0.45869,0.51248 -0.75773,0.87426 -0.29904,0.36185 -0.90912,1.04515 -1.35575,1.51858 -0.44665,0.47336 -1.88922,2.07542 -3.20574,3.56013 -1.31652,1.48471 -2.48127,2.69947 -2.58836,2.69947 -0.11076,0 -0.50618,-0.9275 -0.9174,-2.15175 -0.3975,-1.18347 -1.36668,-4.01792 -2.15373,-6.29872 -0.78703,-2.28088 -1.48934,-4.32303 -1.56067,-4.53821 -0.0713,-0.21518 -0.35476,-1.02503 -0.62983,-1.79962 -0.69026,-1.94379 -2.89787,-8.32051 -3.44022,-9.93716 -0.24543,-0.73161 -0.74077,-2.17522 -1.10076,-3.20799 -1.01365,-2.90828 -2.9115,-8.40536 -3.61988,-10.48488 -0.35182,-1.03284 -0.69139,-1.93512 -0.75458,-2.00516 -0.0632,-0.0699 -0.56465,0.26593 -1.11433,0.74657 -2.61663,2.28802 -5.57005,3.3249 -9.03341,3.17147 -3.46564,-0.15351 -6.10953,-1.25054 -8.516,-3.53355 -0.49554,-0.47009 -0.94044,-0.81531 -0.98869,-0.76708 -0.0482,0.0479 -0.58149,1.52072 -1.18498,3.27211 -0.60351,1.75146 -1.36457,3.95905 -1.69124,4.90576 -0.32668,0.94679 -1.05451,3.05943 -1.6174,4.69476 -0.5629,1.63525 -1.69188,4.90986 -2.50884,7.27672 -0.81697,2.36694 -2.18789,6.34573 -3.04647,8.84172 -0.8586,2.49598 -1.85614,5.38322 -2.21674,6.41607 -0.36062,1.03284 -0.91464,2.66848 -1.23115,3.63479 -0.31652,0.96631 -0.65281,1.75853 -0.7473,1.7605 -0.0945,0 -0.55222,-0.40347 -1.01718,-0.90114 z m -0.48065,-11.53618 c 0.26174,-0.7746 1.05103,-3.0633 1.75397,-5.08593 1.22827,-3.5343 2.37622,-6.86299 4.1555,-12.04971 0.45764,-1.33409 1.35544,-3.93968 1.99507,-5.79012 0.63966,-1.85051 1.45282,-4.20355 1.80704,-5.22903 0.35422,-1.0254 0.6192,-1.88925 0.58884,-1.91963 -0.0303,-0.0304 -0.64671,0.081 -1.36968,0.24731 -1.86588,0.42938 -3.14618,0.52281 -4.71066,0.34385 -3.49577,-0.39998 -6.95481,-2.32728 -8.89814,-4.95786 -0.61788,-0.83643 -1.71154,-2.86445 -1.71154,-3.17382 0,-0.27215 -0.28449,-0.21062 -0.44609,0.0965 -0.0793,0.15062 -0.4999,1.33013 -0.93475,2.62123 -0.43484,1.29102 -1.54033,4.53039 -2.45667,7.19849 -1.72657,5.02744 -3.20747,9.36042 -3.98457,11.65854 -1.65554,4.89597 -3.0354,8.84848 -4.04173,11.5772 -0.17395,0.47176 -0.28886,0.90205 -0.25536,0.95628 0.0335,0.0539 0.43255,0 0.88675,-0.11697 0.45421,-0.11864 1.17793,-0.28096 1.60828,-0.36079 0.43035,-0.0798 1.73313,-0.35661 2.89506,-0.61509 1.16195,-0.25848 2.89135,-0.62588 3.8431,-0.81653 l 1.7305,-0.34651 0.70901,0.76868 c 0.38996,0.42277 0.98434,1.08563 1.32084,1.47293 0.3365,0.3873 0.97173,1.09149 1.41159,1.56492 0.43987,0.47336 1.3847,1.51768 2.09961,2.32076 0.90621,1.01788 1.33441,1.39698 1.41396,1.2519 0.0627,-0.11446 0.32829,-0.84189 0.59005,-1.61657 z m 52.78542,0.66507 c 0.56207,-0.62398 1.67743,-1.87391 2.47858,-2.7777 0.80116,-0.90373 1.88615,-2.09487 2.41106,-2.64707 l 0.95442,-1.0039 1.40967,0.27572 c 0.77534,0.1516 1.65615,0.33906 1.9574,0.41654 1.57595,0.4053 7.24361,1.54099 7.35303,1.47331 0.0699,-0.0433 -0.64322,-2.34977 -1.58467,-5.1258 -0.94145,-2.77596 -2.19898,-6.49089 -2.79449,-8.25534 -0.59552,-1.76438 -1.79487,-5.28547 -2.66523,-7.82452 -0.87033,-2.53905 -2.18591,-6.41212 -2.9235,-8.60694 -0.73757,-2.19474 -1.37607,-4.02566 -1.41889,-4.06873 -0.0428,-0.0433 -0.10341,-0.008 -0.13468,0.0782 -0.0312,0.0861 -0.39131,0.75507 -0.80015,1.48668 -0.53223,0.95241 -1.14325,1.73012 -2.15172,2.73859 -1.93386,1.93391 -3.67356,2.90615 -6.23173,3.48273 -1.66738,0.37575 -4.53188,0.31962 -6.13098,-0.12009 -2.03321,-0.55911 -2.02511,-0.55812 -1.88842,-0.21685 0.13152,0.32828 1.94463,5.53809 2.90815,8.35621 0.33841,0.98978 1.08052,3.13758 1.64914,4.77291 1.64432,4.72901 4.22954,12.2507 5.36393,15.60643 0.57399,1.69791 1.08267,3.08874 1.13038,3.09064 0.0477,0 0.54663,-0.507 1.1087,-1.13106 z m -24.59072,-30.67713 c 2.20947,-0.81546 3.72088,-2.31179 4.61348,-4.56738 0.40037,-1.01173 0.4265,-1.2137 0.36143,-2.79328 -0.0663,-1.60996 -0.0525,-1.71007 0.25516,-1.83919 0.48168,-0.20227 4.81476,-1.42227 4.85379,-1.36667 0.0184,0.0258 0.29224,0.60081 0.60849,1.27681 2.20117,4.70517 8.59597,5.81701 12.12485,2.10801 1.42616,-1.49892 2.02501,-2.80969 2.1682,-4.74556 0.13862,-1.87419 -0.47465,-3.8882 -1.58623,-5.20924 l -0.40466,-0.48091 0.511,-0.5977 c 0.55966,-0.65463 2.59632,-2.97474 2.89101,-3.29337 0.25945,-0.28052 0.30987,-0.26413 1.04754,0.34034 2.1772,1.78405 5.35404,2.10069 8.00094,0.79746 1.19104,-0.58642 2.53853,-1.8016 3.14522,-2.83637 1.50683,-2.57003 1.34784,-5.97586 -0.38618,-8.27255 -0.91502,-1.21194 -1.78643,-1.85991 -3.71249,-2.76062 -0.93879,-0.439 -1.73174,-0.82241 -1.7621,-0.85201 -0.0304,-0.0296 0.0866,-0.49844 0.25998,-1.04187 0.17336,-0.54344 0.35523,-1.57936 0.40418,-2.30206 0.0489,-0.72268 0.12644,-1.35145 0.17222,-1.39722 0.0458,-0.0458 0.70655,0 1.4684,0.1012 3.76941,0.50186 5.68174,0.005 7.70331,-1.99924 3.75822,-3.72704 2.68949,-9.84917 -2.11623,-12.12264 -1.24599,-0.58945 -2.31244,-0.7725 -3.86048,-0.66261 l -1.34941,0.0958 -0.28333,-1.05303 c -0.15582,-0.57914 -0.48278,-1.68647 -0.72654,-2.46069 -0.24376,-0.77422 -0.44321,-1.46142 -0.44321,-1.5271 0,-0.0657 0.58097,-0.39242 1.29104,-0.7261 5.51797,-2.59308 5.9438,-10.17858 0.74104,-13.2001 -1.39851,-0.8122 -2.57953,-1.09441 -4.30119,-1.02784 -1.71804,0.0665 -2.86342,0.46149 -4.02044,1.38667 -0.31771,0.25407 -0.68174,0.46192 -0.80896,0.46192 -0.12721,0 -0.60669,-0.33871 -1.06548,-0.75271 -0.4588,-0.41399 -1.11187,-0.99496 -1.45126,-1.29104 -0.33938,-0.29608 -0.85646,-0.75164 -1.14906,-1.01234 l -0.53197,-0.474 0.63891,-0.77319 c 3.12513,-3.78181 1.88196,-9.41172 -2.54243,-11.51389 -2.71224,-1.28869 -5.98839,-0.80874 -8.22866,1.20547 -1.05337,0.94706 -1.58762,1.7438 -2.35369,3.51009 -0.34591,0.7975 -0.65377,1.47486 -0.68414,1.50523 -0.062,0.062 -4.32544,-1.45982 -4.45621,-1.59057 -0.0459,-0.046 -0.0887,-1.22721 -0.095,-2.62493 l -0.0114,-2.54134 -0.56755,-1.17367 c -1.37781,-2.84923 -3.78985,-4.38172 -6.89662,-4.38172 -1.17791,0 -1.57837,0.0736 -2.64992,0.48681 -1.78729,0.68924 -3.18362,2.0142 -4.09211,3.88291 l -0.65251,1.34217 -0.004,1.94112 -0.004,1.94111 -1.33017,0.36566 c -0.73159,0.20111 -1.71747,0.47986 -2.19085,0.61943 -1.64127,0.48392 -1.63571,0.48475 -1.88152,-0.27655 -0.77971,-2.41468 -3.22488,-4.37291 -6.06036,-4.85343 -4.84775,-0.82154 -9.25851,3.59101 -8.49683,8.50023 0.18912,1.2189 1.01235,3.05597 1.6896,3.77034 0.40216,0.42423 0.403,0.4304 0.10486,0.7707 -0.41462,0.47326 -2.72183,2.78809 -3.23011,3.24081 l -0.41588,0.3704 -0.67464,-0.54654 c -1.35848,-1.10053 -2.60774,-1.52033 -4.53128,-1.52274 -4.30592,-0.005 -7.63596,3.20096 -7.6435,7.35957 -0.006,3.29286 2.02542,6.08015 5.34155,7.32916 l 0.414,0.15593 -0.36153,1.30114 c -0.19884,0.71563 -0.51544,1.87976 -0.70358,2.58695 l -0.34205,1.28581 -1.43297,-0.0941 c -2.46948,-0.16222 -4.10586,0.40941 -5.8544,2.04508 -1.56432,1.46334 -2.38029,3.31967 -2.38,5.41451 0,1.97544 0.45663,3.25899 1.69105,4.75621 0.93888,1.13874 2.24088,2.02576 3.59885,2.45179 0.84523,0.26517 1.35514,0.31789 2.67395,0.27646 l 1.62955,-0.0512 0.22481,0.86069 c 0.12364,0.47339 0.42904,1.5407 0.67868,2.37182 0.24963,0.83111 0.45366,1.60574 0.4534,1.72139 0,0.11565 -0.56545,0.4762 -1.25601,0.80119 -5.33733,2.51205 -5.91665,9.81415 -1.0292,12.97306 2.65137,1.71368 6.22972,1.69604 8.52609,-0.042 0.76083,-0.57584 0.84016,-0.6023 1.15163,-0.38414 0.6361,0.44555 3.71875,3.2476 3.71875,3.38024 0,0.0732 -0.30732,0.57663 -0.68294,1.11869 -1.69291,2.4431 -1.90891,5.1381 -0.62136,7.75282 0.92367,1.87574 2.93112,3.4841 4.92152,3.94295 3.32841,0.76731 7.03065,-1.00163 8.57764,-4.0985 0.29021,-0.58099 0.60004,-1.05632 0.68853,-1.05632 0.29211,0 4.87662,0.96433 4.95498,1.04227 0.0422,0.0418 0.0801,0.93372 0.0842,1.98176 0.009,2.27009 0.26795,3.08806 1.48883,4.70083 1.98481,2.62185 5.43812,3.66852 8.44378,2.55926 z m -43.27504,-0.73822 c 0.19079,-0.55949 0.71976,-2.10868 1.17549,-3.44277 2.73418,-8.00395 3.29964,-9.75326 3.18399,-9.8502 -0.0708,-0.0593 -0.65686,-0.22892 -1.30238,-0.37683 -3.76526,-0.86275 -7.29654,-3.7972 -8.78452,-7.29987 -0.76651,-1.8043 -0.87553,-2.19366 -1.09162,-3.89851 -0.35591,-2.80812 0.44459,-6.28311 1.96047,-8.51027 0.22227,-0.32658 0.40414,-0.65966 0.40414,-0.74015 0,-0.0805 -0.29929,-0.29721 -0.66507,-0.48159 -2.86518,-1.44414 -5.39269,-4.36438 -6.43205,-7.43146 -1.91761,-5.65877 0.27812,-12.0646 5.22259,-15.23634 0.67718,-0.4344 1.29695,-0.78982 1.37724,-0.78982 0.0803,0 0.23294,-0.10475 0.33919,-0.23279 0.15776,-0.19007 0.10759,-0.36956 -0.27339,-0.97807 -1.34224,-2.14389 -1.97047,-4.31183 -1.98456,-6.84838 -0.013,-2.35089 0.34923,-3.97207 1.33522,-5.97539 0.65518,-1.33119 1.00858,-1.8234 2.14541,-2.98811 2.90839,-2.97972 5.78869,-4.25991 9.58445,-4.25991 l 1.55719,0 0,-1.55718 c 0,-1.77449 0.16658,-2.74996 0.7362,-4.31119 0.54782,-1.50151 0.84758,-2.13744 1.1757,-2.49422 0.15344,-0.16685 0.27897,-0.39572 0.27897,-0.50859 0,-0.11288 0.0528,-0.20536 0.11737,-0.20552 0.0646,-1.5e-4 0.30963,-0.29943 0.54463,-0.66509 0.41438,-0.64478 1.01773,-1.23318 2.4571,-2.39627 0.63474,-0.51289 2.46102,-1.46633 3.21875,-1.68038 0.17214,-0.0486 0.62987,-0.21156 1.01718,-0.36204 0.91671,-0.35619 5.4401,-0.41162 6.65083,-0.0815 1.42518,0.38859 2.49119,0.81832 3.57389,1.44068 0.58854,0.3383 1.1274,0.61508 1.19749,0.61508 0.0701,0 0.20381,-0.19366 0.29716,-0.43035 0.68143,-1.72782 2.71667,-4.06188 4.58274,-5.25559 2.11885,-1.35543 4.03823,-1.9609 6.63179,-2.09202 5.09821,-0.25779 9.91888,2.49768 12.18157,6.96288 0.22718,0.4483 0.48719,0.81508 0.57783,0.81508 0.0906,0 0.45914,-0.19767 0.81892,-0.43931 0.84185,-0.56536 2.26201,-1.18291 3.54923,-1.54339 0.80657,-0.22588 1.55182,-0.2824 3.59927,-0.27299 2.47832,0.0114 2.6403,0.0318 4.03059,0.50962 2.05859,0.70744 3.49206,1.60302 5.04903,3.15448 2.54894,2.53994 3.79002,5.47803 3.81731,9.03696 l 0.0134,1.76016 1.51808,0 c 7.26726,0.002 13.11374,5.78316 13.11374,12.96799 0,2.60618 -0.77439,5.31002 -2.05312,7.16857 -0.24789,0.36031 -0.45072,0.69381 -0.45072,0.74111 0,0.0473 0.29928,0.23818 0.66508,0.42417 1.7941,0.91228 3.83376,2.68289 4.78336,4.1524 0.26947,0.41701 0.54713,0.82861 0.617,0.91468 0.17996,0.22167 0.81879,1.60559 1.08354,2.34735 0.75557,2.11685 0.89921,5.23724 0.34245,7.43893 -0.94116,3.72175 -3.34812,6.84076 -6.51337,8.44015 -0.53793,0.27182 -0.97806,0.53164 -0.97806,0.57738 0,0.0457 0.13303,0.27009 0.29561,0.49855 0.42833,0.60186 1.19705,2.1699 1.50786,3.07572 1.63632,4.76884 0.32414,10.28868 -3.23794,13.62074 -1.90697,1.78381 -3.73135,2.76815 -6.23355,3.36326 -0.81765,0.19447 -1.50776,0.37034 -1.53356,0.39082 -0.0258,0.0205 0.10005,0.45039 0.27971,0.95536 0.17966,0.50494 0.67236,1.93922 1.09489,3.18717 1.54206,4.55462 3.11364,9.16712 3.29252,9.66326 l 0.18336,0.5086 12.34739,0 12.34741,0 0,-77.46255 0,-77.46257 -112.98548,0 -112.98548,0 -0.0394,36.18832 c -0.0216,19.90358 -0.0216,54.76183 0,77.46278 l 0.0397,41.27448 59.64152,-0.0395 59.64153,-0.0395 0.34687,-1.0172 z m -111.6501,-73.23734 c 0,-6.97163 -0.0176,-12.72851 -0.0391,-12.79307 -0.0215,-0.0646 4.55582,-0.13547 10.17185,-0.15761 l 10.21098,-0.0403 0,12.83331 0,12.83331 -10.17185,0 -10.17185,0 z m 14.82899,-0.11737 0.0407,-7.23767 -4.69626,0 -4.69627,0 0,7.17248 c 0,3.94484 0.048,7.22045 0.10665,7.2791 0.0586,0.0586 2.15366,0.088 4.65558,0.0652 l 4.54892,-0.0415 z m 8.83945,-4.69356 0.0398,-17.4889 10.17185,0 10.17185,0 0,17.44863 0,17.44865 -10.21164,0.0403 -10.21167,0.0403 z m 14.78997,-0.002 0.0401,-11.93237 -4.69567,0 -4.69569,0 0,11.88019 c 0,9.35709 0.0415,11.89724 0.19561,11.96036 0.10759,0.0441 2.2026,0.0676 4.65558,0.0522 l 4.45997,-0.028 z m 8.80158,-3.95142 0,-21.44139 10.21098,0.0403 10.21097,0.0403 0,21.36089 0,21.3609 -10.21097,0.0403 -10.21098,0.0403 z m 14.7883,0 0,-15.88374 -4.53821,0 -4.53821,0 -0.0403,15.72725 c -0.0222,8.64998 -0.006,15.81637 0.0351,15.92527 0.0589,0.15471 1.06037,0.18893 4.57854,0.15649 l 4.50308,-0.0416 z m 8.91444,21.24466 c -0.0411,-0.10821 -0.0567,-14.17522 -0.0346,-31.26002 l 0.0401,-31.06327 10.17185,0 10.17185,0 0,31.21976 0,31.21976 -10.1372,0.0403 c -8.02683,0.0319 -10.15277,0 -10.212,-0.1565 z m 14.75515,-31.06441 0.0396,-25.70349 -4.61691,0 -4.61693,0 0,25.63829 c 0,14.10106 0.048,25.6863 0.10667,25.74496 0.0586,0.0586 2.11847,0.088 4.57734,0.0652 l 4.47066,-0.0415 z m -79.68701,-6.31976 c -0.0419,-0.11753 -0.0253,-1.34043 0.0371,-2.71754 l 0.11338,-2.50384 2.03437,-0.10884 c 5.7087,-0.30541 9.03271,-0.69031 13.21702,-1.53043 3.91589,-0.7862 8.85299,-2.1946 11.5084,-3.28297 5.41589,-2.21978 8.13143,-3.60804 11.86726,-6.06682 4.98325,-3.27981 9.11894,-7.19136 13.19982,-12.48444 1.1078,-1.43686 4.4313,-6.82398 4.4313,-7.18276 0,-0.0419 0.36345,-0.82004 0.80764,-1.72916 0.44422,-0.90911 0.77108,-1.6895 0.72637,-1.73422 -0.0447,-0.0447 -0.35534,0.0602 -0.69028,0.2331 -2.14044,1.10497 -5.63087,2.6648 -5.8096,2.59621 -0.11701,-0.0449 -0.42678,-0.55794 -0.68836,-1.14009 -0.26161,-0.58214 -0.71609,-1.58973 -1.00997,-2.23908 -0.29389,-0.64933 -0.53434,-1.26252 -0.53434,-1.36262 0,-0.1001 0.6866,-0.50283 1.52577,-0.89494 0.83919,-0.39212 1.80747,-0.8445 2.15174,-1.00531 0.34428,-0.1608 1.36538,-0.64941 2.26911,-1.08579 0.90373,-0.43638 1.83391,-0.83894 2.06708,-0.89458 0.23315,-0.0557 0.50585,-0.19989 0.60599,-0.32055 0.10014,-0.12066 0.2489,-0.21938 0.33059,-0.21938 0.12975,0 3.65,-1.65487 5.34422,-2.51234 0.3309,-0.16747 0.66363,-0.30448 0.73942,-0.30448 0.0758,0 0.28861,0.33449 0.47296,0.74332 0.18433,0.40884 0.71425,1.54122 1.17759,2.51642 0.46331,0.97518 0.84241,1.80261 0.84241,1.83871 0,0.0361 0.42253,0.95167 0.93894,2.0346 0.51642,1.08293 0.93894,1.99 0.93894,2.01572 0,0.0258 0.42971,0.95304 0.95492,2.0607 0.52519,1.10767 1.15725,2.45998 1.40455,3.00515 l 0.44965,0.99122 -2.14789,1.00922 c -1.18134,0.55509 -2.27398,1.07971 -2.42811,1.16584 -0.41016,0.2292 -0.54856,0.0812 -1.16028,-1.2408 -0.58541,-1.26515 -1.24505,-2.6954 -1.86844,-4.05125 -0.20776,-0.45186 -0.42848,-0.82125 -0.49052,-0.82085 -0.062,4.7e-4 -0.60211,1.0296 -1.20018,2.28714 -2.08303,4.37982 -4.19013,7.73037 -7.26647,11.55448 -1.40642,1.74829 -4.46253,4.96922 -5.88673,6.20419 -4.4172,3.83034 -8.05257,6.29319 -13.14516,8.90547 -7.30469,3.74698 -16.03067,6.4405 -24.80367,7.65637 -3.29114,0.45613 -5.05146,0.61272 -8.17457,0.72717 -2.27258,0.0833 -2.78952,0.063 -2.85197,-0.11195 z m 211.95975,-72.90332 0,-11.58027 -53.32398,-0.0308 c -29.32819,-0.0169 -55.15491,-0.0231 -57.39272,-0.0136 -2.23781,0.009 -29.08563,0.0233 -59.66183,0.0308 l -55.59309,0.0136 0,11.58027 0,11.58027 112.98582,0 112.9858,0 z m -47.03278,2.61891 c -0.0433,-0.11293 -0.0594,-1.36456 -0.0356,-2.78141 l 0.0431,-2.57608 2.69554,-0.0428 c 2.68967,-0.0427 2.69574,-0.042 2.78338,0.31298 0.0483,0.19568 0.0677,1.4473 0.043,2.78138 l -0.0448,2.4256 -2.70294,0.0428 c -2.11702,0.0336 -2.72002,-0.002 -2.78174,-0.1625 z m 12.67569,0 c -0.0434,-0.11293 -0.0594,-1.36456 -0.0356,-2.78141 l 0.0431,-2.57608 2.73858,0 2.73857,0 0,2.73858 0,2.73858 -2.70294,0.0428 c -2.11701,0.0336 -2.72001,-0.002 -2.78173,-0.1625 z m 12.71288,0.0972 c -0.15211,-0.1521 -0.13032,-5.09877 0.0236,-5.34117 0.0963,-0.15173 0.76108,-0.18922 2.7753,-0.1565 l 2.64868,0.043 0,2.73859 0,2.73857 -2.6698,0.0427 c -1.46839,0.0235 -2.71836,-0.006 -2.7777,-0.0652 z"
         style="fill:#f9f9f9" />
    </g>
  </g>
</svg>
